<?xml version="1.0" encoding="UTF-8"?>
<svg version="1.1" xmlns="http://www.w3.org/2000/svg" width="533" height="305">
<path d="M0 0 C175.89 0 351.78 0 533 0 C533 100.65 533 201.3 533 305 C357.11 305 181.22 305 0 305 C0 204.35 0 103.7 0 0 Z " fill="#FEFEFE" transform="translate(0,0)"/>
<path d="M0 0 C26.73 0 53.46 0 81 0 C81 1.98 81 3.96 81 6 C72.09 6 63.18 6 54 6 C54 44.61 54 83.22 54 123 C55.98 122.67 57.96 122.34 60 122 C59.8125 123.8125 59.8125 123.8125 59 126 C53.89681967 129.62594392 50.37476716 129.98965651 44.25 129.5625 C39.06702342 129.42162368 39.06702342 129.42162368 34.62890625 131.7421875 C32.79335213 133.88478578 32.79335213 133.88478578 31.33203125 136.15234375 C30 138 30 138 27 139 C23.93889546 139.39461753 21.05135185 139.50672269 18 139 C15.4375 136.625 15.4375 136.625 14 134 C14 133.34 14 132.68 14 132 C13.46632813 132.433125 12.93265625 132.86625 12.3828125 133.3125 C7.30213913 137.10981989 3.5717552 138.86588404 -2.83203125 138.46875 C-5.88282223 137.80911952 -7.22282991 136.51765763 -9 134 C-9.66 133.34 -10.32 132.68 -11 132 C-17.84822853 137.14924054 -22.74946398 141.49892795 -26.625 149.25 C-28 152 -28 152 -30 154 C-33.625 154.125 -33.625 154.125 -37 154 C-37.33 153.01 -37.66 152.02 -38 151 C-36.6234948 148.38862357 -34.99219198 146.02025867 -33.34765625 143.5703125 C-31.83540491 140.68607661 -31.49792663 139.20395272 -32 136 C-33.2609973 133.92870418 -33.2609973 133.92870418 -35 132.1875 C-35.556875 131.58292969 -36.11375 130.97835937 -36.6875 130.35546875 C-37.120625 129.90816406 -37.55375 129.46085938 -38 129 C-40.69870427 130.95943156 -43.35493521 132.9688069 -46 135 C-46.69351562 135.51820313 -47.38703125 136.03640625 -48.1015625 136.5703125 C-53.17321069 140.62371472 -55.97474524 144.94949048 -58.87109375 150.7421875 C-60 153 -60 153 -61 154 C-63.33297433 154.04092937 -65.66705225 154.04241723 -68 154 C-68.65234375 152.203125 -68.65234375 152.203125 -69 150 C-68.00390625 148.359375 -68.00390625 148.359375 -66.5625 146.75 C-64.06986789 143.47316903 -63.19221148 141.12371452 -63.42578125 137 C-64.51022102 133.22290366 -67.21071788 130.65645917 -70 128 C-73.73071384 128.73525017 -76.8969315 130.29594005 -80.3125 131.9375 C-88.0548604 135.53278317 -95.33830737 138.3493089 -104 137 C-105.35506252 136.02964782 -106.69207533 135.03301057 -108 134 C-111.6316926 134.70616245 -114.12102237 136.79747388 -117 139 C-122.68379647 143.34768013 -126.85316021 144.69162966 -134 144 C-135.76171875 142.3984375 -135.76171875 142.3984375 -137 140 C-137.07421875 136.765625 -137.07421875 136.765625 -136.6875 133.25 C-136.56761719 132.07953125 -136.44773438 130.9090625 -136.32421875 129.703125 C-136.21722656 128.81109375 -136.11023438 127.9190625 -136 127 C-149.86146604 128.20002091 -163.58976107 132.91472921 -174.95703125 141.03125 C-177.64701997 142.30680871 -179.2020041 141.82035482 -182 141 C-181.44222328 137.52691031 -180.48381581 136.26527642 -177.6875 134.1875 C-173.94591104 131.14022651 -171.96453527 128.42020437 -170 124 C-170.10275315 121.64330947 -170.10275315 121.64330947 -171 120 C-172.65 119.67 -174.3 119.34 -176 119 C-183.85490346 128.81862933 -185.24668748 142.89470669 -187 155 C-187.16918945 156.11238037 -187.33837891 157.22476074 -187.51269531 158.37084961 C-189.20994429 170.4694825 -189.39068704 182.48192911 -189.53173828 194.68286133 C-189.5657003 197.36035953 -189.61069271 200.03752161 -189.65625 202.71484375 C-189.6615271 203.51502426 -189.6668042 204.31520477 -189.67224121 205.13963318 C-189.76817571 210.63588071 -190.62230934 215.68141235 -192 221 C-193.65 221.33 -195.3 221.66 -197 222 C-201.04722078 217.09008216 -200.37301492 211.83638697 -200.25 205.8125 C-200.24484375 204.82185547 -200.2396875 203.83121094 -200.234375 202.81054688 C-200.18719915 198.31409913 -200.0013258 193.90437787 -199.50708008 189.43481445 C-198.87841299 183.36390558 -198.77383479 177.31018752 -198.68359375 171.2109375 C-198.6524221 169.43428207 -198.6524221 169.43428207 -198.62062073 167.62173462 C-198.5557248 163.87287676 -198.49652158 160.12395447 -198.4375 156.375 C-198.39425764 153.819004 -198.35064161 151.2630143 -198.30664062 148.70703125 C-198.20010569 142.47142042 -198.09823286 136.23574685 -198 130 C-198.94544678 130.48533203 -199.89089355 130.97066406 -200.86499023 131.47070312 C-205.17889225 133.57507835 -207.24761584 133.60347735 -212 133 C-215.24808568 130.40153146 -217.61346148 127.39139685 -220 124 C-223.21934427 125.19234973 -224.25612897 126.32837047 -226.4375 129.125 C-229 132 -229 132 -231.8125 132.375 C-232.8953125 132.189375 -232.8953125 132.189375 -234 132 C-234.99 129.525 -234.99 129.525 -236 127 C-238.31986067 128.97188157 -239.4930891 130.93649326 -240.8125 133.625 C-242.44294591 136.60260971 -242.70392373 136.89933407 -246.125 138.0625 C-249 138 -249 138 -251 136 C-251.40047444 133.67724823 -251.7397104 131.34260643 -252 129 C-253.96564623 130.57492144 -255.9222622 132.15921132 -257.875 133.75 C-258.43058594 134.1934375 -258.98617187 134.636875 -259.55859375 135.09375 C-265.66014275 140.09260942 -266.29723978 144.02199865 -267.3125 151.625 C-269.72770696 168.09030054 -273.45073197 186.33306087 -285 199 C-288.01868434 200.50934217 -290.67297229 200.17510672 -294 200 C-297 198 -297 198 -298 195 C-300.00124354 179.72468537 -291.78440037 163.4086749 -282.79638672 151.390625 C-281.57908947 149.83863103 -280.35211912 148.29423979 -279.125 146.75 C-275.05876962 141.4261726 -273.45326879 137.63585503 -273 131 C-272.89429688 129.89140625 -272.78859375 128.7828125 -272.6796875 127.640625 C-271.7847459 116.77052667 -271.89655443 105.8364852 -271.875 94.9375 C-271.87098175 93.80130219 -271.87098175 93.80130219 -271.86688232 92.64215088 C-271.84473179 84.36165428 -271.96623167 76.10511918 -272.421875 67.8359375 C-272.45747528 67.15567001 -272.49307556 66.47540253 -272.52975464 65.77452087 C-273.20651612 53.39504277 -273.20651612 53.39504277 -279 43 C-281.96030093 42.47898704 -283.42634662 42.66619784 -286.02734375 44.1796875 C-293.25279056 50.59245624 -299.46111128 58.92586086 -300.21484375 68.8203125 C-300.50004459 76.91572127 -300.50004459 76.91572127 -297 84 C-294.72855613 85.60515367 -292.51378272 86.76682357 -290 88 C-290.33 88.99 -290.66 89.98 -291 91 C-294.28241941 91.5744234 -296.31513357 91.46038244 -299.109375 89.58203125 C-303.78037874 85.58440213 -306.62900225 82.85635432 -307.44140625 76.6015625 C-307.81587722 64.3044192 -304.80379977 55.72388674 -297 45.9375 C-292.43733537 41.10572379 -287.45495163 37.32593883 -280.6875 36.6875 C-276.14071883 37.07282044 -274.37261183 37.92717589 -271 41 C-267.74127614 46.69125699 -266.1561663 52.58858261 -265.265625 59.03515625 C-265.14358704 59.88803726 -265.02154907 60.74091827 -264.89581299 61.61964417 C-263.61881812 71.49258705 -263.61909809 81.3629906 -263.71875 91.30249023 C-263.75021373 94.45894185 -263.75977449 97.61489042 -263.765625 100.77148438 C-263.80489012 110.88731016 -263.95092226 120.93007358 -265 131 C-264.1850708 130.47269287 -263.3701416 129.94538574 -262.53051758 129.40209961 C-254.375 124.125 -254.375 124.125 -251 123 C-251 120.03 -251 117.06 -251 114 C-249.35 114 -247.7 114 -246 114 C-245.01 116.97 -244.02 119.94 -243 123 C-242.29875 122.175 -241.5975 121.35 -240.875 120.5 C-238 118 -238 118 -234.8125 117.5625 C-232 118 -232 118 -230 120 C-227.73725212 119.64644564 -226.04911148 119.02455574 -224 118 C-220.6875 117.625 -220.6875 117.625 -217 118 C-213.45743198 120.8834856 -210.78459067 124.39034542 -208 128 C-204.47930015 127.41321669 -202.28700157 126.64350079 -199 125 C-199 119.72 -199 114.44 -199 109 C-197.35 108.67 -195.7 108.34 -194 108 C-192.00267708 110.99598439 -191.68893321 112.02492507 -191.3671875 115.44921875 C-191.28339844 116.29677734 -191.19960937 117.14433594 -191.11328125 118.01757812 C-191.03464844 118.89865234 -190.95601563 119.77972656 -190.875 120.6875 C-190.74544922 122.02651367 -190.74544922 122.02651367 -190.61328125 123.39257812 C-190.40133622 125.5944515 -190.19720988 127.79676609 -190 130 C-189.61630249 129.05568115 -189.61630249 129.05568115 -189.22485352 128.09228516 C-186.99742537 122.67898508 -184.50996119 116.75498059 -179 114 C-173.01786355 113.59443143 -169.31911802 114.23405863 -164 117 C-163.34 117.66 -162.68 118.32 -162 119 C-162.0234375 121.1640625 -162.0234375 121.1640625 -162.375 123.625 C-162.48585937 124.44226563 -162.59671875 125.25953125 -162.7109375 126.1015625 C-162.80632812 126.72804688 -162.90171875 127.35453125 -163 128 C-161.96359375 127.6390625 -160.9271875 127.278125 -159.859375 126.90625 C-158.48969264 126.4371807 -157.11989486 125.96844834 -155.75 125.5 C-154.72712891 125.14228516 -154.72712891 125.14228516 -153.68359375 124.77734375 C-150.23586997 123.60578713 -147.68297096 123 -144 123 C-144.061875 121.7625 -144.12375 120.525 -144.1875 119.25 C-144.20362826 116.21788698 -144.10651023 115.17751704 -142.5 112.5 C-142.005 112.005 -141.51 111.51 -141 111 C-139.35 111.33 -137.7 111.66 -136 112 C-136 114.64 -136 117.28 -136 120 C-135.01 119.34 -134.02 118.68 -133 118 C-129.8125 117.875 -129.8125 117.875 -127 118 C-126.71899498 125.16562789 -127.79556805 131.94546999 -129 139 C-122.82922801 136.81451825 -118.70574181 133.50114434 -114 129 C-113.45730469 128.505 -112.91460937 128.01 -112.35546875 127.5 C-110.70521184 125.8438015 -110.70521184 125.8438015 -109.5625 122.5 C-107.34729812 117.53794778 -107.34729812 117.53794778 -104 116 C-99.29967693 115.47774188 -97.12231532 115.36869763 -93 117.6875 C-91 120 -91 120 -90.375 122.5625 C-91 125 -91 125 -93.0625 126.8125 C-96.5516623 128.22301242 -99.2696758 128.21943084 -103 128 C-101.40067881 131.0926365 -101.40067881 131.0926365 -99.1796875 131.5390625 C-90.33745081 131.86877302 -82.6611475 128.07488231 -75 124 C-73.808296 121.97184009 -73.808296 121.97184009 -73.9375 119.3125 C-72.53608991 114.360851 -69.03937897 111.99855739 -65 109 C-61.94306678 107.47153339 -59.37015453 107.76757555 -56 108 C-53.5625 109.1875 -53.5625 109.1875 -52 111 C-51.75 113.6875 -51.75 113.6875 -52 116 C-54.475 116.495 -54.475 116.495 -57 117 C-57.66 116.01 -58.32 115.02 -59 114 C-62.24983135 115.08784968 -62.24983135 115.08784968 -65 117 C-65.41446813 120.66804296 -65.40600164 122.42362267 -63.25 125.484375 C-62.13625 126.60585937 -62.13625 126.60585937 -61 127.75 C-57 131.83333333 -57 131.83333333 -57 134 C-55.3290267 133.07925961 -53.6622549 132.14993161 -52.01953125 131.1796875 C-50.70748978 130.41327256 -49.3713242 129.68627966 -48.01171875 129.0078125 C-45.94558796 127.83572174 -44.5618527 126.79590857 -43 125 C-42.67267114 122.94530152 -42.67267114 122.94530152 -42.7578125 120.57421875 C-42.12481995 111.17972033 -38.08732923 102.57931301 -34.75 93.875 C-33.99822847 91.88363259 -33.24802147 89.89167393 -32.49926758 87.89916992 C-31.30051642 84.7105228 -30.10044906 81.5224168 -28.89533997 78.33616638 C-24.21279195 65.95463235 -19.64805886 53.53006509 -15.08190918 41.10528564 C-13.70926907 37.37072483 -12.33388237 33.63717908 -10.95800781 29.90380859 C-10.1009087 27.5778005 -9.24381222 25.25179143 -8.38671875 22.92578125 C-8.00192856 21.88167587 -7.61713837 20.8375705 -7.22068787 19.76182556 C-6.85484085 18.76832596 -6.48899384 17.77482635 -6.11206055 16.7512207 C-5.79915573 15.90179398 -5.48625092 15.05236725 -5.16386414 14.17720032 C-3.43390539 9.45463408 -1.71878039 4.72664607 0 0 Z " fill="#FEE3E3" transform="translate(392,15)"/>
<path d="M0 0 C26.07 0 52.14 0 79 0 C83.49980402 10.12455904 83.49980402 10.12455904 85.34326172 15.03417969 C85.75869736 16.13652451 86.174133 17.23886932 86.60215759 18.37461853 C87.2592849 20.13051048 87.2592849 20.13051048 87.9296875 21.921875 C88.40178022 23.17734262 88.87412207 24.43271658 89.34669495 25.68800354 C90.34430898 28.33941219 91.34030114 30.99142166 92.33493042 33.64395142 C93.88223284 37.77036546 95.43307535 41.89544283 96.98461914 46.02026367 C98.53445698 50.14096773 100.08413148 54.26173241 101.63252258 58.38298035 C105.88425242 69.69911249 110.15531539 81.00785927 114.4375 92.3125 C115.02134498 93.85448334 115.60516749 95.39647519 116.18896484 96.93847656 C117.4588856 100.29247851 118.72925885 103.64630877 120 107 C118.04763248 108.46788457 116.09513422 109.93145609 114.11328125 111.359375 C112.22853823 112.81483816 110.56219674 114.1984344 109 116 C108.855625 117.175625 108.71125 118.35125 108.5625 119.5625 C108 123 108 123 106.53125 124.4140625 C104.41114386 125.785401 102.27838793 126.91147858 100 128 C99.20722656 128.39445313 98.41445313 128.78890625 97.59765625 129.1953125 C91.61333403 131.89912949 86.52238997 132.49958732 80 132 C79.34 130.68 78.68 129.36 78 128 C78.62648438 127.86722656 79.25296875 127.73445313 79.8984375 127.59765625 C80.71570313 127.42105469 81.53296875 127.24445313 82.375 127.0625 C83.18710937 126.88847656 83.99921875 126.71445313 84.8359375 126.53515625 C87.029463 126.07669307 87.029463 126.07669307 89 125 C89.33425735 122.62625139 89.33425735 122.62625139 89 120 C86.58043385 117.07635756 84.85437291 116.98150767 81.0625 116.5 C77.66934482 116.63269322 76.9975584 117.00185774 74.125 119.1875 C71.94482812 121.78502958 71.94482812 121.78502958 71.13671875 124.38671875 C69.78506303 127.49413345 68.10390592 129.2613895 65.6875 131.625 C64.92824219 132.38039062 64.16898437 133.13578125 63.38671875 133.9140625 C59.5053071 137.30632735 57.24395588 139 52 139 C51.75908465 131.7725395 52.65504172 125.09705662 54 118 C50.64566891 118.94933899 47.30753495 119.89748835 44 121 C44 118.03 44 115.06 44 112 C41.525 112.495 41.525 112.495 39 113 C38.34 116.3 37.68 119.6 37 123 C33.37 123.99 29.74 124.98 26 126 C25.99191315 124.7524292 25.98382629 123.5048584 25.97549438 122.21948242 C25.89793166 110.44896815 25.81016673 98.67856803 25.71247292 86.90820312 C25.66257666 80.85728233 25.61624593 74.80637844 25.578125 68.75537109 C25.5411881 62.91329198 25.49480514 57.07135653 25.44193649 51.22940063 C25.42343722 49.00316901 25.40831286 46.77690663 25.39665604 44.55062866 C25.3797172 41.4268327 25.35066347 38.30336257 25.31884766 35.1796875 C25.31668747 34.26402512 25.31452728 33.34836273 25.31230164 32.404953 C25.22841834 25.93663142 24.65436479 20.03300211 21.5 14.25 C15.46286124 8.81657511 7.87594041 7.50812519 0 7 C0 4.69 0 2.38 0 0 Z " fill="#FEE3E3" transform="translate(211,15)"/>
<path d="M0 0 C5.83425478 5.31565436 7.49793714 13.00445966 8.546875 20.59765625 C8.72993195 21.87697777 8.72993195 21.87697777 8.91668701 23.18214417 C10.19368188 33.05508705 10.19340191 42.9254906 10.09375 52.86499023 C10.06228627 56.02144185 10.05272551 59.17739042 10.046875 62.33398438 C10.00760988 72.44981016 9.86157774 82.49257358 8.8125 92.5625 C9.6274292 92.03519287 10.4423584 91.50788574 11.28198242 90.96459961 C19.4375 85.6875 19.4375 85.6875 22.8125 84.5625 C22.8125 81.5925 22.8125 78.6225 22.8125 75.5625 C24.4625 75.5625 26.1125 75.5625 27.8125 75.5625 C28.8025 78.5325 29.7925 81.5025 30.8125 84.5625 C31.51375 83.7375 32.215 82.9125 32.9375 82.0625 C35.8125 79.5625 35.8125 79.5625 39 79.125 C41.8125 79.5625 41.8125 79.5625 43.8125 81.5625 C46.07524788 81.20894564 47.76338852 80.58705574 49.8125 79.5625 C53.125 79.1875 53.125 79.1875 56.8125 79.5625 C60.35506802 82.4459856 63.02790933 85.95284542 65.8125 89.5625 C69.33319985 88.97571669 71.52549843 88.20600079 74.8125 86.5625 C74.8125 81.2825 74.8125 76.0025 74.8125 70.5625 C76.4625 70.2325 78.1125 69.9025 79.8125 69.5625 C81.80982292 72.55848439 82.12356679 73.58742507 82.4453125 77.01171875 C82.52910156 77.85927734 82.61289063 78.70683594 82.69921875 79.58007812 C82.77785156 80.46115234 82.85648437 81.34222656 82.9375 82.25 C83.06705078 83.58901367 83.06705078 83.58901367 83.19921875 84.95507812 C83.41116378 87.1569515 83.61529012 89.35926609 83.8125 91.5625 C84.19619751 90.61818115 84.19619751 90.61818115 84.58764648 89.65478516 C86.81507463 84.24148508 89.30253881 78.31748059 94.8125 75.5625 C100.79463645 75.15693143 104.49338198 75.79655863 109.8125 78.5625 C110.4725 79.2225 111.1325 79.8825 111.8125 80.5625 C111.7890625 82.7265625 111.7890625 82.7265625 111.4375 85.1875 C111.32664063 86.00476563 111.21578125 86.82203125 111.1015625 87.6640625 C111.00617188 88.29054688 110.91078125 88.91703125 110.8125 89.5625 C111.84890625 89.2015625 112.8853125 88.840625 113.953125 88.46875 C115.32280736 87.9996807 116.69260514 87.53094834 118.0625 87.0625 C119.08537109 86.70478516 119.08537109 86.70478516 120.12890625 86.33984375 C123.57663003 85.16828713 126.12952904 84.5625 129.8125 84.5625 C129.750625 83.325 129.68875 82.0875 129.625 80.8125 C129.60887174 77.78038698 129.70598977 76.74001704 131.3125 74.0625 C131.8075 73.5675 132.3025 73.0725 132.8125 72.5625 C134.4625 72.8925 136.1125 73.2225 137.8125 73.5625 C137.8125 76.2025 137.8125 78.8425 137.8125 81.5625 C138.8025 80.9025 139.7925 80.2425 140.8125 79.5625 C144 79.4375 144 79.4375 146.8125 79.5625 C147.09350502 86.72812789 146.01693195 93.50796999 144.8125 100.5625 C150.98327199 98.37701825 155.10675819 95.06364434 159.8125 90.5625 C160.35519531 90.0675 160.89789063 89.5725 161.45703125 89.0625 C163.10728816 87.4063015 163.10728816 87.4063015 164.25 84.0625 C166.46520188 79.10044778 166.46520188 79.10044778 169.8125 77.5625 C174.51282307 77.04024188 176.69018468 76.93119763 180.8125 79.25 C182.8125 81.5625 182.8125 81.5625 183.4375 84.125 C182.8125 86.5625 182.8125 86.5625 180.75 88.375 C177.2608377 89.78551242 174.5428242 89.78193084 170.8125 89.5625 C172.41182119 92.6551365 172.41182119 92.6551365 174.6328125 93.1015625 C183.47504919 93.43127302 191.1513525 89.63738231 198.8125 85.5625 C200.004204 83.53434009 200.004204 83.53434009 199.875 80.875 C201.27641009 75.923351 204.77312103 73.56105739 208.8125 70.5625 C211.86943322 69.03403339 214.44234547 69.33007555 217.8125 69.5625 C220.25 70.75 220.25 70.75 221.8125 72.5625 C222.0625 75.25 222.0625 75.25 221.8125 77.5625 C219.3375 78.0575 219.3375 78.0575 216.8125 78.5625 C216.1525 77.5725 215.4925 76.5825 214.8125 75.5625 C211.56266865 76.65034968 211.56266865 76.65034968 208.8125 78.5625 C208.39803187 82.23054296 208.40649836 83.98612267 210.5625 87.046875 C211.67625 88.16835937 211.67625 88.16835937 212.8125 89.3125 C216.8125 93.39583333 216.8125 93.39583333 216.8125 95.5625 C218.48390443 94.64152205 220.15140281 93.71264144 221.796875 92.74609375 C223.10272762 91.97928495 224.42537736 91.24012651 225.765625 90.53515625 C228.74072196 88.77884901 230.51245131 87.66145132 231.44921875 84.23046875 C231.62904297 82.94076172 231.62904297 82.94076172 231.8125 81.625 C232.35911016 77.76995994 233.01367185 75.69838235 235.875 73 C239.8638214 70.06262525 243.89726694 69.15447872 248.8125 69.5625 C251.375 70.6875 251.375 70.6875 252.8125 72.5625 C253.0625 75.25 253.0625 75.25 252.8125 77.5625 C251.1625 77.8925 249.5125 78.2225 247.8125 78.5625 C247.4825 77.2425 247.1525 75.9225 246.8125 74.5625 C243.06582798 76.1952851 243.06582798 76.1952851 239.8125 78.5625 C239.3215068 82.45696875 239.47798584 84.09125982 241.78125 87.3359375 C243.03421875 88.62371094 243.03421875 88.62371094 244.3125 89.9375 C245.1478125 90.81148438 245.983125 91.68546875 246.84375 92.5859375 C247.4934375 93.23820312 248.143125 93.89046875 248.8125 94.5625 C253.83067415 92.70586314 257.93704005 90.27249087 261.8125 86.5625 C263.37820265 83.38520164 263.37820265 83.38520164 263.8125 80.5625 C265.46864657 80.18031233 267.13707024 79.84854898 268.8125 79.5625 C270.91566798 81.66566798 270.25699765 86.05035568 270.43359375 88.8984375 C270.64834594 91.78428086 270.64834594 91.78428086 272.8125 94.5625 C277.86183187 94.31619113 280.59228508 92.68264092 284.2109375 89.3828125 C286.36006433 86.94014639 287.64139462 84.38207749 288.890625 81.39453125 C289.94422429 79.30072587 290.98353376 78.0274705 292.8125 76.5625 C296 76.375 296 76.375 298.8125 76.5625 C298.33672607 79.13167922 297.73215457 80.68141123 296.25 82.875 C294.08684785 86.91915402 294.40632678 90.58240554 295.3125 95 C295.4775 95.515625 295.6425 96.03125 295.8125 96.5625 C298.32485884 95.24020588 300.36684266 94.13548801 302.125 91.875 C303.19576551 88.27333419 303.11583239 85.32382166 302.8125 81.5625 C301.8225 80.9025 300.8325 80.2425 299.8125 79.5625 C300.6875 75.6875 300.6875 75.6875 301.8125 74.5625 C303.80859375 74.578125 303.80859375 74.578125 306.25 74.8125 C307.45462891 74.91304687 307.45462891 74.91304687 308.68359375 75.015625 C310.8125 75.5625 310.8125 75.5625 312.8125 78.5625 C312.89155064 80.89449388 312.90048769 83.23082622 312.8125 85.5625 C319.87600437 86.76387472 324.25558857 86.43833835 330.8125 83.5625 C331.8025 83.5625 332.7925 83.5625 333.8125 83.5625 C333.625 85.375 333.625 85.375 332.8125 87.5625 C327.70931967 91.18844392 324.18726716 91.55215651 318.0625 91.125 C312.87952342 90.98412368 312.87952342 90.98412368 308.44140625 93.3046875 C306.60585213 95.44728578 306.60585213 95.44728578 305.14453125 97.71484375 C303.8125 99.5625 303.8125 99.5625 300.8125 100.5625 C297.75139546 100.95711753 294.86385185 101.06922269 291.8125 100.5625 C289.25 98.1875 289.25 98.1875 287.8125 95.5625 C287.8125 94.9025 287.8125 94.2425 287.8125 93.5625 C287.27882813 93.995625 286.74515625 94.42875 286.1953125 94.875 C281.11463913 98.67231989 277.3842552 100.42838404 270.98046875 100.03125 C267.92967777 99.37161952 266.58967009 98.08015763 264.8125 95.5625 C264.1525 94.9025 263.4925 94.2425 262.8125 93.5625 C255.96427147 98.71174054 251.06303602 103.06142795 247.1875 110.8125 C245.8125 113.5625 245.8125 113.5625 243.8125 115.5625 C240.1875 115.6875 240.1875 115.6875 236.8125 115.5625 C236.4825 114.5725 236.1525 113.5825 235.8125 112.5625 C237.1890052 109.95112357 238.82030802 107.58275867 240.46484375 105.1328125 C241.97709509 102.24857661 242.31457337 100.76645272 241.8125 97.5625 C240.5515027 95.49120418 240.5515027 95.49120418 238.8125 93.75 C237.9771875 92.84314453 237.9771875 92.84314453 237.125 91.91796875 C236.691875 91.47066406 236.25875 91.02335937 235.8125 90.5625 C233.11379573 92.52193156 230.45756479 94.5313069 227.8125 96.5625 C227.11898438 97.08070313 226.42546875 97.59890625 225.7109375 98.1328125 C220.63928931 102.18621472 217.83775476 106.51199048 214.94140625 112.3046875 C213.8125 114.5625 213.8125 114.5625 212.8125 115.5625 C210.47952567 115.60342937 208.14544775 115.60491723 205.8125 115.5625 C205.16015625 113.765625 205.16015625 113.765625 204.8125 111.5625 C205.80859375 109.921875 205.80859375 109.921875 207.25 108.3125 C209.74263211 105.03566903 210.62028852 102.68621452 210.38671875 98.5625 C209.30227898 94.78540366 206.60178212 92.21895917 203.8125 89.5625 C200.08178616 90.29775017 196.9155685 91.85844005 193.5 93.5 C185.7576396 97.09528317 178.47419263 99.9118089 169.8125 98.5625 C168.45743748 97.59214782 167.12042467 96.59551057 165.8125 95.5625 C162.1808074 96.26866245 159.69147763 98.35997388 156.8125 100.5625 C151.12870353 104.91018013 146.95933979 106.25412966 139.8125 105.5625 C138.05078125 103.9609375 138.05078125 103.9609375 136.8125 101.5625 C136.73828125 98.328125 136.73828125 98.328125 137.125 94.8125 C137.24488281 93.64203125 137.36476562 92.4715625 137.48828125 91.265625 C137.59527344 90.37359375 137.70226562 89.4815625 137.8125 88.5625 C123.95103396 89.76252091 110.22273893 94.47722921 98.85546875 102.59375 C96.16548003 103.86930871 94.6104959 103.38285482 91.8125 102.5625 C92.37027672 99.08941031 93.32868419 97.82777642 96.125 95.75 C99.86658896 92.70272651 101.84796473 89.98270437 103.8125 85.5625 C103.70974685 83.20580947 103.70974685 83.20580947 102.8125 81.5625 C101.1625 81.2325 99.5125 80.9025 97.8125 80.5625 C89.95759654 90.38112933 88.56581252 104.45720669 86.8125 116.5625 C86.64331055 117.67488037 86.47412109 118.78726074 86.29980469 119.93334961 C84.60255571 132.0319825 84.42181296 144.04442911 84.28076172 156.24536133 C84.2467997 158.92285953 84.20180729 161.60002161 84.15625 164.27734375 C84.1509729 165.07752426 84.1456958 165.87770477 84.14025879 166.70213318 C84.04432429 172.19838071 83.19019066 177.24391235 81.8125 182.5625 C80.1625 182.8925 78.5125 183.2225 76.8125 183.5625 C72.76527922 178.65258216 73.43948508 173.39888697 73.5625 167.375 C73.56765625 166.38435547 73.5728125 165.39371094 73.578125 164.37304688 C73.62530085 159.87659913 73.8111742 155.46687787 74.30541992 150.99731445 C74.93408701 144.92640558 75.03866521 138.87268752 75.12890625 132.7734375 C75.1600779 130.99678207 75.1600779 130.99678207 75.19187927 129.18423462 C75.2567752 125.43537676 75.31597842 121.68645447 75.375 117.9375 C75.41824236 115.381504 75.46185839 112.8255143 75.50585938 110.26953125 C75.61239431 104.03392042 75.71426714 97.79824685 75.8125 91.5625 C74.86705322 92.04783203 73.92160645 92.53316406 72.94750977 93.03320312 C68.63360775 95.13757835 66.56488416 95.16597735 61.8125 94.5625 C58.56441432 91.96403146 56.19903852 88.95389685 53.8125 85.5625 C50.59315573 86.75484973 49.55637103 87.89087047 47.375 90.6875 C44.8125 93.5625 44.8125 93.5625 42 93.9375 C40.9171875 93.751875 40.9171875 93.751875 39.8125 93.5625 C39.1525 91.9125 38.4925 90.2625 37.8125 88.5625 C35.49263933 90.53438157 34.3194109 92.49899326 33 95.1875 C31.36955409 98.16510971 31.10857627 98.46183407 27.6875 99.625 C24.8125 99.5625 24.8125 99.5625 22.8125 97.5625 C22.41202556 95.23974823 22.0727896 92.90510643 21.8125 90.5625 C19.84685377 92.13742144 17.8902378 93.72171132 15.9375 95.3125 C15.38191406 95.7559375 14.82632813 96.199375 14.25390625 96.65625 C8.15235725 101.65510942 7.51526022 105.58449865 6.5 113.1875 C4.08479304 129.65280054 0.36176803 147.89556087 -11.1875 160.5625 C-14.20618434 162.07184217 -16.86047229 161.73760672 -20.1875 161.5625 C-23.1875 159.5625 -23.1875 159.5625 -24.1875 156.5625 C-26.18874354 141.28718537 -17.97190037 124.9711749 -8.98388672 112.953125 C-7.76658947 111.40113103 -6.53961912 109.85673979 -5.3125 108.3125 C-1.24626962 102.9886726 0.35923121 99.19835503 0.8125 92.5625 C0.91820312 91.45390625 1.02390625 90.3453125 1.1328125 89.203125 C2.0277541 78.33302667 1.91594557 67.3989852 1.9375 56.5 C1.94151825 55.36380219 1.94151825 55.36380219 1.94561768 54.20465088 C1.96776821 45.92415428 1.84626833 37.66761918 1.390625 29.3984375 C1.35502472 28.71817001 1.31942444 28.03790253 1.28274536 27.33702087 C0.60598388 14.95754277 0.60598388 14.95754277 -5.1875 4.5625 C-8.14780093 4.04148704 -9.61384662 4.22869784 -12.21484375 5.7421875 C-19.44029056 12.15495624 -25.64861128 20.48836086 -26.40234375 30.3828125 C-26.68754459 38.47822127 -26.68754459 38.47822127 -23.1875 45.5625 C-20.91605613 47.16765367 -18.70128272 48.32932357 -16.1875 49.5625 C-16.5175 50.5525 -16.8475 51.5425 -17.1875 52.5625 C-20.46991941 53.1369234 -22.50263357 53.02288244 -25.296875 51.14453125 C-29.96787874 47.14690213 -32.81650225 44.41885432 -33.62890625 38.1640625 C-34.00337722 25.8669192 -30.99129977 17.28638674 -23.1875 7.5 C-16.84542385 0.78386037 -9.22989198 -4.16250031 0 0 Z " fill="#C86663" transform="translate(118.1875,53.4375)"/>
<path d="M0 0 C3.43441608 0.9037937 4.37715643 2.74587214 6.375 5.625 C8.84532636 12.30155773 9.57379399 19.41806248 9.9453125 26.48828125 C9.98574173 27.22256851 10.02617096 27.95685577 10.06782532 28.71339417 C10.4830532 36.82827054 10.5743939 44.93830578 10.5625 53.0625 C10.56159363 54.21748993 10.56159363 54.21748993 10.56066895 55.39581299 C10.53871886 65.78275438 10.32468485 76.13371529 9.625 86.5 C9.5633667 87.54986084 9.5017334 88.59972168 9.43823242 89.68139648 C8.97612764 95.45170802 8.1436451 99.0218692 4.375 103.625 C-6.42526516 118.52611771 -17.11566082 134.53307482 -15.625 153.625 C-15.295 154.615 -14.965 155.605 -14.625 156.625 C-11.48628812 158.19435594 -9.08644178 157.97701103 -5.625 157.625 C3.76898893 150.41565966 7.62952279 136.96499718 10 125.875 C10.21454834 124.91142578 10.42909668 123.94785156 10.65014648 122.95507812 C11.79950398 117.69127711 12.74213667 112.46637492 13.4375 107.125 C14.71295866 98.2772237 19.73559717 94.07188873 26.375 88.625 C27.035 88.955 27.695 89.285 28.375 89.625 C28.045 89.955 27.715 90.285 27.375 90.625 C27.25015846 92.96652841 27.18900709 95.28007585 27.16967773 97.62329102 C27.15977814 98.35495483 27.14987854 99.08661865 27.13967896 99.8404541 C27.10797617 102.26990472 27.08327207 104.69937493 27.05859375 107.12890625 C27.03803178 108.80900087 27.01703552 110.48909023 26.99562073 112.16917419 C26.94032174 116.59967803 26.89094713 121.03022915 26.84277344 125.46081543 C26.7926154 129.97847725 26.73689967 134.49607008 26.68164062 139.01367188 C26.57396337 147.88405794 26.47305313 156.75450233 26.375 165.625 C35.285 165.625 44.195 165.625 53.375 165.625 C53.375 167.605 53.375 169.585 53.375 171.625 C18.725 171.625 -15.925 171.625 -51.625 171.625 C-51.625 169.645 -51.625 167.665 -51.625 165.625 C-42.715 165.625 -33.805 165.625 -24.625 165.625 C-24.625 124.375 -24.625 83.125 -24.625 40.625 C-22.15 43.1 -22.15 43.1 -19.625 45.625 C-16.97501736 48.10401602 -16.07280112 48.59916532 -12.375 48.8125 C-11.4675 48.750625 -10.56 48.68875 -9.625 48.625 C-9.13 47.635 -9.13 47.635 -8.625 46.625 C-9.5325 46.398125 -10.44 46.17125 -11.375 45.9375 C-15.12273815 44.42399036 -16.42718768 42.96241871 -18.625 39.625 C-21.12446578 32.12660267 -20.19229982 24.11854412 -16.95703125 17.0078125 C-13.30817152 10.48052677 -7.69172846 1.83136392 0 0 Z " fill="#FEE3E3" transform="translate(110.625,56.375)"/>
<path d="M0 0 C5.61 0 11.22 0 17 0 C17 25.74 17 51.48 17 78 C25.91 78 34.82 78 44 78 C44 79.98 44 81.96 44 84 C9.35 84 -25.3 84 -61 84 C-61 82.02 -61 80.04 -61 78 C-51.76 78 -42.52 78 -33 78 C-33.04189453 75.94120605 -33.08378906 73.88241211 -33.12695312 71.76123047 C-33.25968987 64.94829846 -33.34794654 58.13530832 -33.41449738 51.32142448 C-33.45619739 47.19112465 -33.5127229 43.06215271 -33.60351562 38.93261719 C-33.69063883 34.94488681 -33.73831316 30.95843076 -33.75901794 26.96982193 C-33.77376575 25.45064353 -33.80256812 23.93153262 -33.84584045 22.41289902 C-34.17092177 10.52823523 -34.17092177 10.52823523 -31.23608398 6.69781494 C-28.59051973 4.64277041 -26.41891201 3 -23 3 C-22.484375 3.99 -21.96875 4.98 -21.4375 6 C-19.40068633 9.12630396 -19.40068633 9.12630396 -16.9140625 9.50390625 C-12.17511632 9.6219863 -8.73127627 9.10939689 -5 6 C-3.35 4.02 -1.7 2.04 0 0 Z " fill="#FEE3E3" transform="translate(429,144)"/>
<path d="M0 0 C34.65 0 69.3 0 105 0 C105 1.98 105 3.96 105 6 C96.09 6 87.18 6 78 6 C78.07742432 9.57344238 78.15484863 13.14688477 78.23461914 16.82861328 C78.4837055 28.63053025 78.68334668 40.43292901 78.85746098 52.23614693 C78.96424609 59.39315831 79.08795013 66.54912494 79.25170898 73.70507812 C79.39442277 79.94328807 79.50516496 86.18111305 79.5777635 92.42054737 C79.61731046 95.72392741 79.67744471 99.02483171 79.76637459 102.32730484 C79.86302586 106.01731987 79.90311376 109.70392857 79.92993164 113.39501953 C79.97163986 114.48618576 80.01334808 115.57735199 80.05632019 116.70158386 C80.02792058 123.94554294 80.02792058 123.94554294 77.00359917 127.0479393 C71.26243677 131 71.26243677 131 68 131 C68.00666183 130.28019958 68.01332367 129.56039917 68.02018738 128.81878662 C68.08103002 121.93791338 68.12633805 115.05708179 68.15543652 108.17600632 C68.17090064 104.64081834 68.1917718 101.10585786 68.22631836 97.57080078 C70.06188672 67.2689349 70.06188672 67.2689349 60 40 C56.28155253 37.67968878 53.36270974 37.5563346 49 38 C42.2903626 40.77541504 37.10113272 45.30679311 33.375 51.5 C31.35639368 54.82476336 29.34294385 57.87607487 27 61 C27 42.85 27 24.7 27 6 C18.09 6 9.18 6 0 6 C0 4.02 0 2.04 0 0 Z " fill="#FEE4E4" transform="translate(59,15)"/>
<path d="M0 0 C3.6311445 1.68803205 5.85835555 4.48743408 7.890625 7.87890625 C8.69279376 10.74539741 8.67429127 13.00922186 7.890625 15.87890625 C6.7317871 17.87401892 5.48298886 19.58339185 3.984375 21.3359375 C2.60147308 22.97159918 2.60147308 22.97159918 2.890625 25.87890625 C6.48223931 26.79002197 6.48223931 26.79002197 9.890625 25.87890625 C11.86859549 23.09218615 13.35138298 20.15858078 14.9375 17.1328125 C19.13775323 10.13519062 25.97091046 5.06715453 32.890625 0.87890625 C33.890625 2.87890625 33.890625 2.87890625 33.27420044 5.11512756 C32.75199417 6.51425636 32.75199417 6.51425636 32.21923828 7.94165039 C31.82777618 9.0019899 31.43631409 10.06232941 31.0329895 11.15480042 C30.59671234 12.3128569 30.16043518 13.47091339 29.7109375 14.6640625 C29.02829165 16.5046794 28.34564653 18.34529656 27.66303825 20.18592739 C26.69638007 22.78638644 25.72262899 25.38416848 24.74908447 27.98205566 C22.8559882 33.03923937 20.97790608 38.10203627 19.09627533 43.16349411 C18.39916933 45.03709557 17.70047043 46.91010411 17.00177002 48.78311157 C13.45653179 58.30135807 9.9997939 67.84943823 6.61257935 77.42506409 C6.26718109 78.39523972 5.92178284 79.36541534 5.56591797 80.36499023 C5.2649118 81.21657211 4.96390564 82.06815399 4.65377808 82.94554138 C3.890625 84.87890625 3.890625 84.87890625 2.890625 85.87890625 C0.55765067 85.91983562 -1.77642725 85.92132348 -4.109375 85.87890625 C-8.04337949 75.67423685 -11.95715451 65.47254506 -15.52661133 55.13378906 C-17.3076408 50.03026124 -19.19634469 44.9715893 -21.11328125 39.91796875 C-21.38298737 39.20552505 -21.65269348 38.49308136 -21.93057251 37.75904846 C-23.29988991 34.14351949 -24.67526316 30.53047016 -26.05957031 26.9206543 C-26.57249015 25.56958391 -27.08519442 24.21843167 -27.59765625 22.8671875 C-28.05696533 21.66618408 -28.51627441 20.46518066 -28.98950195 19.2277832 C-30.03734223 16.0943136 -30.67194537 13.14764196 -31.109375 9.87890625 C-30.46613281 9.79253906 -29.82289063 9.70617187 -29.16015625 9.6171875 C-20.57433386 8.28215948 -11.81567234 5.95824917 -4.4765625 1.15625 C-2.109375 -0.12109375 -2.109375 -0.12109375 0 0 Z " fill="#FEE3E3" transform="translate(321.109375,142.12109375)"/>
<path d="M0 0 C0.33 0 0.66 0 1 0 C1 37.95 1 75.9 1 115 C-1.475 115.495 -1.475 115.495 -4 116 C-6.8503026 112.79054398 -7.43451699 110.50011452 -7.6875 106.25 C-7.75324219 105.26515625 -7.81898438 104.2803125 -7.88671875 103.265625 C-7.92410156 102.51796875 -7.96148437 101.7703125 -8 101 C-10.475 101.495 -10.475 101.495 -13 102 C-13.21398437 102.89976562 -13.42796875 103.79953125 -13.6484375 104.7265625 C-15.29946686 108.72529834 -17.07106638 109.97816104 -20.625 112.375 C-21.62789063 113.06335938 -22.63078125 113.75171875 -23.6640625 114.4609375 C-24.82035156 115.22277344 -24.82035156 115.22277344 -26 116 C-29.50825087 114.51452441 -31.68258106 112.54563396 -34.25 109.75 C-34.95640625 109.00234375 -35.6628125 108.2546875 -36.390625 107.484375 C-38.39185323 104.39510035 -38.48053425 102.61639178 -38 99 C-35.6875 96.625 -35.6875 96.625 -33 95 C-32.01 95 -31.02 95 -30 95 C-29.67 95.99 -29.34 96.98 -29 98 C-27.68 98 -26.36 98 -25 98 C-25 96.35 -25 94.7 -25 93 C-27.31 91.68 -29.62 90.36 -32 89 C-29.8826992 81.65112597 -27.46230354 74.44566757 -24.875 67.25 C-24.46121094 66.09491943 -24.04742187 64.93983887 -23.62109375 63.74975586 C-19.15707345 51.32619435 -14.57563366 38.94527093 -10 26.5625 C-9.42907623 25.01725647 -9.42907623 25.01725647 -8.84661865 23.4407959 C-7.75293363 20.48228683 -6.6580269 17.52423372 -5.5625 14.56640625 C-5.2326712 13.67480301 -4.90284241 12.78319977 -4.5630188 11.86457825 C-3.08880879 7.88969213 -1.60401968 3.92491122 0 0 Z " fill="#FEFCFC" transform="translate(395,33)"/>
<path d="M0 0 C2.38829399 2.38829399 2.98415725 4.28045318 4.13208008 7.45483398 C4.55084915 8.60415405 4.96961823 9.75347412 5.40107727 10.93762207 C5.85728779 12.20709136 6.31343735 13.47658256 6.76953125 14.74609375 C7.24700178 16.0617571 7.7250141 17.37722393 8.20353699 18.69250488 C9.48246389 22.21192366 10.75476321 25.73370102 12.02532959 29.25614548 C14.11248581 35.0399346 16.20783344 40.82076623 18.30334091 46.60153389 C18.82299994 48.03531282 19.34240098 49.46918528 19.86154556 50.90315056 C22.9843885 59.52639657 26.15453659 68.12807989 29.44921875 76.6875 C29.76445999 77.51137711 30.07970123 78.33525421 30.40449524 79.18409729 C31.79371018 82.81328017 33.19750131 86.43514408 34.63208008 90.04663086 C39.0587224 101.59186407 39.0587224 101.59186407 37 108 C34.890625 110.86328125 34.890625 110.86328125 32.25 113.3125 C30.95835937 114.54419922 30.95835937 114.54419922 29.640625 115.80078125 C25.60347896 119.16307891 23.34886827 121 18 121 C17.75908465 113.7725395 18.65504172 107.09705662 20 100 C16.64566891 100.94933899 13.30753495 101.89748835 10 103 C10 100.03 10 97.06 10 94 C7.525 94.495 7.525 94.495 5 95 C4.01 99.95 4.01 99.95 3 105 C2.01 105 1.02 105 0 105 C0 70.35 0 35.7 0 0 Z " fill="#FEFDFD" transform="translate(245,33)"/>
<path d="M0 0 C0.01213028 0.88084259 0.01213028 0.88084259 0.02450562 1.77947998 C0.11121291 7.94514987 0.21073692 14.11052238 0.31738281 20.27587891 C0.35543711 22.57042406 0.39032899 24.86502411 0.421875 27.15966797 C0.4680414 30.47643527 0.52594586 33.79283226 0.5859375 37.109375 C0.59748871 38.11925476 0.60903992 39.12913452 0.62094116 40.1696167 C0.83295436 50.62757311 1.10304234 62.70991183 8.640625 70.75 C14.04318556 75.6357939 18.76289647 77.14857605 26 78 C26 80.31 26 82.62 26 85 C5.54 85 -14.92 85 -36 85 C-36 82.69 -36 80.38 -36 78 C-34.74896484 77.70609375 -34.74896484 77.70609375 -33.47265625 77.40625 C-25.38892756 75.25799678 -19.27467228 72.68520262 -14 66 C-12.46983576 63.0545644 -11.67509074 60.23747896 -11 57 C-10.84318253 56.39454346 -10.68636505 55.78908691 -10.52479553 55.1652832 C-9.01533511 49.09231062 -8.66105197 43.29954509 -8.5859375 37.05859375 C-8.56657135 36.05031021 -8.5472052 35.04202667 -8.5272522 34.00318909 C-8.46795567 30.81470938 -8.42127231 27.62619259 -8.375 24.4375 C-8.3367742 22.26235493 -8.29771986 20.08722425 -8.2578125 17.91210938 C-8.16229587 12.60820164 -8.07710564 7.30420565 -8 2 C-2.25 0 -2.25 0 0 0 Z " fill="#FEE4E4" transform="translate(245,143)"/>
<path d="M0 0 C3.3923422 1.72817433 5.42158265 3.02720718 7.375 6.3125 C8.54659061 11.35033962 8.71095077 14.70067618 6.1875 19.3125 C3.99705293 22.00362069 2.41320703 23.74858676 -1.0859375 24.37109375 C-5.50040984 24.49915865 -7.38423801 24.47464987 -11 21.6875 C-14.02188956 17.62683591 -14.39142458 14.20456665 -14.359375 9.29296875 C-13.74961638 5.40244364 -11.81165184 3.67776365 -9 1 C-5.89046621 -0.5547669 -3.43733239 -0.28644437 0 0 Z " fill="#FDFBFA" transform="translate(23,267)"/>
<path d="M0 0 C10.44444444 0 10.44444444 0 14 2 C15.4783226 4.95664519 15.06032783 7.74229737 15 11 C13.02 11.99 13.02 11.99 11 13 C12.98 16.63 14.96 20.26 17 24 C15.68 24 14.36 24 13 24 C12.69707031 23.36191406 12.39414062 22.72382813 12.08203125 22.06640625 C11.66308594 21.24011719 11.24414062 20.41382813 10.8125 19.5625 C10.40644531 18.73878906 10.00039063 17.91507812 9.58203125 17.06640625 C8.13366813 14.75309288 8.13366813 14.75309288 5.32421875 14.21484375 C4.55722656 14.14394531 3.79023438 14.07304687 3 14 C3 17.3 3 20.6 3 24 C2.01 24 1.02 24 0 24 C0 16.08 0 8.16 0 0 Z " fill="#CD7471" transform="translate(404,267)"/>
<path d="M0 0 C0.99 0 1.98 0 3 0 C4.32 5.61 5.64 11.22 7 17 C8.65 11.39 10.3 5.78 12 0 C13.32 0 14.64 0 16 0 C18.475 7.425 18.475 7.425 21 15 C22.19524226 10.44120293 22.19524226 10.44120293 23.36254883 5.87524414 C23.81516279 4.22177919 24.40570154 2.60798479 25 1 C25.99 0.67 26.98 0.34 28 0 C27.63379732 8.11138929 25.58459767 15.33035667 23 23 C22.01 23 21.02 23 20 23 C17.46369371 17.44428147 15.68891549 11.87099194 14 6 C12.35 11.61 10.7 17.22 9 23 C7.68 22.67 6.36 22.34 5 22 C4.1606242 18.89743488 3.3295495 15.79270556 2.5 12.6875 C2.26152344 11.80642578 2.02304688 10.92535156 1.77734375 10.01757812 C1.55175781 9.17001953 1.32617188 8.32246094 1.09375 7.44921875 C0.88427734 6.66893311 0.67480469 5.88864746 0.45898438 5.0847168 C0 3 0 3 0 0 Z " fill="#CE7875" transform="translate(132,268)"/>
<path d="M0 0 C0.99 0 1.98 0 3 0 C5.475 7.425 5.475 7.425 8 15 C9.68373405 11.6325319 10.68218415 8.84984234 11.625 5.25 C11.88539062 4.26515625 12.14578125 3.2803125 12.4140625 2.265625 C12.60742188 1.51796875 12.80078125 0.7703125 13 0 C13.99 0 14.98 0 16 0 C15.43189471 5.79859195 14.26320265 10.97686594 12.4375 16.5 C12.20353516 17.22703125 11.96957031 17.9540625 11.72851562 18.703125 C11.15867219 20.47080261 10.58024596 22.23570969 10 24 C9.01 24 8.02 24 7 24 C6.65066406 22.85660156 6.30132812 21.71320313 5.94140625 20.53515625 C5.48193537 19.04422012 5.02229099 17.55333745 4.5625 16.0625 C4.33240234 15.30775391 4.10230469 14.55300781 3.86523438 13.77539062 C2.96998264 10.09791548 2.96998264 10.09791548 1 7 C-0.65 12.61 -2.3 18.22 -4 24 C-4.99 24 -5.98 24 -7 24 C-9.45600648 16.39353334 -11.64741104 8.88416983 -13 1 C-12.01 1 -11.02 1 -10 1 C-8.68 6.28 -7.36 11.56 -6 17 C-5.47599609 15.28490234 -5.47599609 15.28490234 -4.94140625 13.53515625 C-4.48193537 12.04422012 -4.02229099 10.55333745 -3.5625 9.0625 C-3.33240234 8.30775391 -3.10230469 7.55300781 -2.86523438 6.77539062 C-1.11328125 1.11328125 -1.11328125 1.11328125 0 0 Z " fill="#CB706E" transform="translate(55,267)"/>
<path d="M0 0 C1.71580375 5.17879789 -0.14497041 9.76575818 -1.5 14.875 C-1.77046143 15.90262451 -2.04092285 16.93024902 -2.31958008 17.98901367 C-7.9056029 38.27040194 -7.9056029 38.27040194 -15 43 C-16.54019868 28.45367911 -8.90418178 14.36046672 -2 2 C-1.34 1.34 -0.68 0.68 0 0 Z " fill="#FBDCDC" transform="translate(116,168)"/>
<path d="M0 0 C11 0 11 0 13.75 1.5625 C15.56873125 5.10902594 15.0972376 7.22824574 14 11 C12.375 12.9375 12.375 12.9375 10 14 C6.25 14.1875 6.25 14.1875 3 14 C3 16.97 3 19.94 3 23 C2.01 23 1.02 23 0 23 C0 15.41 0 7.82 0 0 Z " fill="#CB6E6C" transform="translate(358,268)"/>
<path d="M0 0 C1.32 0 2.64 0 4 0 C5.35620117 1.45288086 5.35620117 1.45288086 6.54296875 3.46484375 C6.97673828 4.18220703 7.41050781 4.89957031 7.85742188 5.63867188 C8.29634766 6.39728516 8.73527344 7.15589844 9.1875 7.9375 C10.07613764 9.42619052 10.96542675 10.91449243 11.85546875 12.40234375 C12.24371826 13.06741943 12.63196777 13.73249512 13.03198242 14.41772461 C13.90440402 15.98245781 13.90440402 15.98245781 15 17 C15.33 11.39 15.66 5.78 16 0 C16.99 0 17.98 0 19 0 C19 7.92 19 15.84 19 24 C17.68 24 16.36 24 15 24 C13.53613281 22.43945312 13.53613281 22.43945312 12.203125 20.28125 C11.71972656 19.51425781 11.23632812 18.74726563 10.73828125 17.95703125 C10.24714844 17.14621094 9.75601563 16.33539063 9.25 15.5 C8.74339844 14.68917969 8.23679687 13.87835938 7.71484375 13.04296875 C6.46378632 11.03655589 5.2302194 9.01925667 4 7 C3.67 12.61 3.34 18.22 3 24 C2.01 24 1.02 24 0 24 C0 16.08 0 8.16 0 0 Z " fill="#CD7673" transform="translate(83,267)"/>
<path d="M0 0 C0.99 0 1.98 0 3 0 C5.97 7.59 8.94 15.18 12 23 C11.01 23.33 10.02 23.66 9 24 C8.71125 23.030625 8.4225 22.06125 8.125 21.0625 C6.36392516 17.81121448 6.36392516 17.81121448 3.57421875 17.37890625 C1.03985402 17.14590242 -1.4554377 17.00954808 -4 17 C-4.66 19.31 -5.32 21.62 -6 24 C-6.99 24 -7.98 24 -9 24 C-6.41874331 15.82602049 -3.22988119 7.93359166 0 0 Z " fill="#CE7976" transform="translate(212,267)"/>
<path d="M0 0 C3.3923422 1.72817433 5.42158265 3.02720718 7.375 6.3125 C8.54659061 11.35033962 8.71095077 14.70067618 6.1875 19.3125 C3.99705293 22.00362069 2.41320703 23.74858676 -1.0859375 24.37109375 C-5.50040984 24.49915865 -7.38423801 24.47464987 -11 21.6875 C-14.02188956 17.62683591 -14.39142458 14.20456665 -14.359375 9.29296875 C-13.74961638 5.40244364 -11.81165184 3.67776365 -9 1 C-5.89046621 -0.5547669 -3.43733239 -0.28644437 0 0 Z M-9.5 4.4375 C-11.73276102 8.25180007 -11.65368537 11.68567654 -11 16 C-9.2880813 19.76398568 -9.2880813 19.76398568 -6 22 C-2.48635979 22.38191741 -0.69858576 22.5286595 2.16796875 20.359375 C4.49135173 17.3672144 4.5072158 15.68821013 4.4375 11.9375 C4.43621094 10.89464844 4.43492188 9.85179687 4.43359375 8.77734375 C4.20963052 6.01500009 4.20963052 6.01500009 2.71875 4.15625 C-1.14696735 1.55567651 -5.70023408 2.2526346 -9.5 4.4375 Z " fill="#CA6D6A" transform="translate(23,267)"/>
<path d="M0 0 C0.99 0 1.98 0 3 0 C3 7.92 3 15.84 3 24 C-1.50064841 22.8748379 -1.50064841 22.8748379 -3.54296875 19.69140625 C-3.97673828 19.02689453 -4.41050781 18.36238281 -4.85742188 17.67773438 C-5.51581055 16.63069336 -5.51581055 16.63069336 -6.1875 15.5625 C-6.63802734 14.86833984 -7.08855469 14.17417969 -7.55273438 13.45898438 C-10.73382994 8.53234012 -10.73382994 8.53234012 -12 6 C-12.33 11.94 -12.66 17.88 -13 24 C-13.66 24 -14.32 24 -15 24 C-15 16.41 -15 8.82 -15 1 C-10.5 2.125 -10.5 2.125 -8.421875 5.37890625 C-7.98359375 6.05244141 -7.5453125 6.72597656 -7.09375 7.41992188 C-6.42859375 8.48049805 -6.42859375 8.48049805 -5.75 9.5625 C-5.29109375 10.27341797 -4.8321875 10.98433594 -4.359375 11.71679688 C-3.22906503 13.47113214 -2.11312897 15.23471341 -1 17 C-0.67 11.39 -0.34 5.78 0 0 Z " fill="#CB6E6B" transform="translate(313,267)"/>
<path d="M0 0 C3.29714793 0.32971479 4.6226839 0.6226839 7 3 C7 8.2850414 3.31495971 12.2069211 0 16 C-1.63356951 17.37368345 -3.2925002 18.71937515 -5 20 C-5.66 20.99 -6.32 21.98 -7 23 C-7.66 23 -8.32 23 -9 23 C-7.94257116 14.69839447 -6.12067645 6.12067645 0 0 Z " fill="#FBF5F5" transform="translate(216,133)"/>
<path d="M0 0 C0.99 0 1.98 0 3 0 C3 3.3 3 6.6 3 10 C6.96 10 10.92 10 15 10 C15 7.03 15 4.06 15 1 C15.99 1 16.98 1 18 1 C18 8.59 18 16.18 18 24 C17.34 24 16.68 24 16 24 C16 20.37 16 16.74 16 13 C11.71 13 7.42 13 3 13 C3 16.63 3 20.26 3 24 C2.01 24 1.02 24 0 24 C0 16.08 0 8.16 0 0 Z " fill="#CD7673" transform="translate(173,267)"/>
<path d="M0 0 C0.99 0 1.98 0 3 0 C3.01981934 0.56509277 3.03963867 1.13018555 3.06005859 1.71240234 C3.15518236 4.26707997 3.26491058 6.82092541 3.375 9.375 C3.42140625 10.70917969 3.42140625 10.70917969 3.46875 12.0703125 C3.50742187 12.92109375 3.54609375 13.771875 3.5859375 14.6484375 C3.6173584 15.43395996 3.6487793 16.21948242 3.68115234 17.02880859 C3.8399465 19.23002939 3.8399465 19.23002939 6 21 C8.64 21 11.28 21 14 21 C14.33 14.07 14.66 7.14 15 0 C15.99 0 16.98 0 18 0 C18.11638036 3.24969769 18.18730581 6.4988583 18.25 9.75 C18.28351562 10.67039062 18.31703125 11.59078125 18.3515625 12.5390625 C18.44986823 19.322158 18.44986823 19.322158 16.265625 22.61328125 C12.54744902 24.88906138 9.21869472 24.6514161 5 24 C1.71068486 22.27310955 1.1859733 21.5579199 0 18 C-0.08021999 16.59175107 -0.10765977 15.18002769 -0.09765625 13.76953125 C-0.09282227 12.56586914 -0.09282227 12.56586914 -0.08789062 11.33789062 C-0.07951172 10.50451172 -0.07113281 9.67113281 -0.0625 8.8125 C-0.05798828 7.96751953 -0.05347656 7.12253906 -0.04882812 6.25195312 C-0.03705403 4.16793845 -0.0191189 2.08396023 0 0 Z " fill="#CB6E6C" transform="translate(504,267)"/>
<path d="M0 0 C0.99 0.33 1.98 0.66 3 1 C4.04691167 3.30615472 4.89744996 5.48336816 5.6875 7.875 C5.91244141 8.51308594 6.13738281 9.15117187 6.36914062 9.80859375 C7.350435 12.66597979 8 14.95856532 8 18 C8.66 18.33 9.32 18.66 10 19 C7 21 7 21 4 21 C1.73828125 18.8046875 1.73828125 18.8046875 -0.6875 15.875 C-1.49574219 14.92367187 -2.30398438 13.97234375 -3.13671875 12.9921875 C-5.2466881 9.60385098 -5.58219654 7.91609558 -5 4 C-2.6875 1.5625 -2.6875 1.5625 0 0 Z " fill="#FDE0E0" transform="translate(331,128)"/>
<path d="M0 0 C4.62 0 9.24 0 14 0 C14 0.99 14 1.98 14 3 C10.37 3 6.74 3 3 3 C3 5.31 3 7.62 3 10 C6.3 10 9.6 10 13 10 C13 10.99 13 11.98 13 13 C9.7 13 6.4 13 3 13 C3 15.97 3 18.94 3 22 C6.3 22 9.6 22 13 22 C13 22.66 13 23.32 13 24 C8.71 24 4.42 24 0 24 C0 16.08 0 8.16 0 0 Z " fill="#CF7977" transform="translate(433,267)"/>
<path d="M0 0 C0.99 0.33 1.98 0.66 3 1 C3 1.99 3 2.98 3 4 C-0.3 4 -3.6 4 -7 4 C-7.12815365 6.3852733 -7.12815365 6.3852733 -6 9 C-4.03772852 10.27224195 -2.05984556 11.18863211 0.08984375 12.10546875 C2 13 2 13 4 15 C3.8125 18.5 3.8125 18.5 3 22 C-0.42094242 24.28062828 -1.68187222 24.21925007 -5.6875 24.125 C-7.17830078 24.09792969 -7.17830078 24.09792969 -8.69921875 24.0703125 C-9.45847656 24.04710937 -10.21773438 24.02390625 -11 24 C-11 23.01 -11 22.02 -11 21 C-10.37351562 21.01160156 -9.74703125 21.02320313 -9.1015625 21.03515625 C-7.87566406 21.04869141 -7.87566406 21.04869141 -6.625 21.0625 C-5.40683594 21.07990234 -5.40683594 21.07990234 -4.1640625 21.09765625 C-1.95062858 21.14466334 -1.95062858 21.14466334 0 20 C0 18.68 0 17.36 0 16 C-0.62648438 15.66226562 -1.25296875 15.32453125 -1.8984375 14.9765625 C-2.71570313 14.53054688 -3.53296875 14.08453125 -4.375 13.625 C-5.59316406 12.96371094 -5.59316406 12.96371094 -6.8359375 12.2890625 C-9 11 -9 11 -11 9 C-11.5109181 5.76418539 -11.28519568 4.42208961 -9.4375 1.6875 C-6.14189944 -0.59406962 -3.93045581 -0.35731416 0 0 Z " fill="#CC726F" transform="translate(470,267)"/>
<path d="M0 0 C0.99 0.33 1.98 0.66 3 1 C2.67 1.99 2.34 2.98 2 4 C-0.97 4 -3.94 4 -7 4 C-7.33 5.65 -7.66 7.3 -8 9 C-6.6696875 9.4021875 -6.6696875 9.4021875 -5.3125 9.8125 C0.55780022 11.91694725 0.55780022 11.91694725 3 14 C3.82822327 19.79756289 3.82822327 19.79756289 1.82421875 22.70703125 C-0.73626517 24.52184962 -2.58622896 24.29695662 -5.6875 24.1875 C-7.17830078 24.14689453 -7.17830078 24.14689453 -8.69921875 24.10546875 C-9.45847656 24.07066406 -10.21773438 24.03585937 -11 24 C-11 23.01 -11 22.02 -11 21 C-7.37 21 -3.74 21 0 21 C0 19.02 0 17.04 0 15 C-1.60875 14.62875 -1.60875 14.62875 -3.25 14.25 C-7.06960284 12.97679905 -8.82016457 12.36057963 -11 9 C-10.9375 5.375 -10.9375 5.375 -10 2 C-6.31884463 -0.45410358 -4.34706402 -0.23287843 0 0 Z " fill="#CC706E" transform="translate(341,267)"/>
<path d="M0 0 C5.61 0 11.22 0 17 0 C17 0.66 17 1.32 17 2 C14.69 2 12.38 2 10 2 C10 8.93 10 15.86 10 23 C9.01 23 8.02 23 7 23 C7 16.07 7 9.14 7 2 C4.69 2 2.38 2 0 2 C0 1.34 0 0.68 0 0 Z " fill="#C96865" transform="translate(233,268)"/>
<path d="M0 0 C0.66 0 1.32 0 2 0 C1.63379732 8.11138929 -0.41540233 15.33035667 -3 23 C-3.99 23 -4.98 23 -6 23 C-6.33 21.02 -6.66 19.04 -7 17 C-6.34 17 -5.68 17 -5 17 C-4.72285156 15.85660156 -4.44570312 14.71320313 -4.16015625 13.53515625 C-3.79445622 12.04422535 -3.42856071 10.55334239 -3.0625 9.0625 C-2.88009766 8.30775391 -2.69769531 7.55300781 -2.50976562 6.77539062 C-1.11328125 1.11328125 -1.11328125 1.11328125 0 0 Z " fill="#CF7A77" transform="translate(158,268)"/>
<path d="M0 0 C6.75 -0.125 6.75 -0.125 9 1 C9.125 3.875 9.125 3.875 9 7 C7 9 7 9 3.375 9.125 C2.26125 9.08375 1.1475 9.0425 0 9 C0 6.03 0 3.06 0 0 Z " fill="#FBF6F6" transform="translate(407,270)"/>
<path d="M0 0 C5.625 -0.25 5.625 -0.25 9 2 C9.3125 4.5 9.3125 4.5 9 7 C7 9 7 9 3.375 9.125 C2.26125 9.08375 1.1475 9.0425 0 9 C0 6.03 0 3.06 0 0 Z " fill="#FDFBFB" transform="translate(361,270)"/>
<path d="M0 0 C4.15526857 -0.33242149 6.55857236 -0.22487823 10.3125 1.6875 C13.19619394 4.16881805 14.14800799 5.33643438 15 9 C15.25 12.6875 15.25 12.6875 15 16 C14.34 16.66 13.68 17.32 13 18 C12.34 18 11.68 18 11 18 C10.95101563 17.15695312 10.90203125 16.31390625 10.8515625 15.4453125 C10.73941406 13.80175781 10.73941406 13.80175781 10.625 12.125 C10.55539063 11.03445313 10.48578125 9.94390625 10.4140625 8.8203125 C10.26746509 5.86953526 10.26746509 5.86953526 8 4 C7.01 3.855625 6.02 3.71125 5 3.5625 C4.01 3.376875 3.02 3.19125 2 3 C1.34 2.01 0.68 1.02 0 0 Z " fill="#D07E7B" transform="translate(16,267)"/>
<path d="M0 0 C0.99 0 1.98 0 3 0 C3 7.92 3 15.84 3 24 C2.01 24 1.02 24 0 24 C0 16.08 0 8.16 0 0 Z " fill="#CF7A78" transform="translate(386,267)"/>
<path d="M0 0 C0.99 0 1.98 0 3 0 C3 7.92 3 15.84 3 24 C2.01 24 1.02 24 0 24 C0 16.08 0 8.16 0 0 Z " fill="#CC716E" transform="translate(280,267)"/>
<path d="M0 0 C1.15957207 3.47871621 0.77456651 4.34219645 -0.4375 7.6875 C-0.72496094 8.49574219 -1.01242188 9.30398438 -1.30859375 10.13671875 C-1.53675781 10.75160156 -1.76492187 11.36648438 -2 12 C-0.02 12 1.96 12 4 12 C4 12.33 4 12.66 4 13 C2.906875 13.020625 1.81375 13.04125 0.6875 13.0625 C-2.95732337 13.56114043 -2.95732337 13.56114043 -4.1328125 15.625 C-5.06424734 17.78223035 -5.06424734 17.78223035 -6 21 C-6.99 21 -7.98 21 -9 21 C-3.38297872 3.38297872 -3.38297872 3.38297872 0 0 Z " fill="#CB706E" transform="translate(212,270)"/>
<path d="M0 0 C0.99 0 1.98 0 3 0 C3 6.27 3 12.54 3 19 C2.01 19 1.02 19 0 19 C0 12.73 0 6.46 0 0 Z " fill="#CE7876" transform="translate(519,267)"/>
<path d="M0 0 C0.99 0 1.98 0 3 0 C2.37968409 6.57534861 0.85102717 12.66692592 -1 19 C-1.99 18.67 -2.98 18.34 -4 18 C-2.9611908 11.8887076 -1.84269722 5.92295536 0 0 Z " fill="#CF7976" transform="translate(68,267)"/>
<path d="M0 0 C0.78375 0.04125 1.5675 0.0825 2.375 0.125 C2.5 3 2.5 3 2.375 6.125 C1.715 6.785 1.055 7.445 0.375 8.125 C-2.25 7.75 -2.25 7.75 -4.625 7.125 C-4.75 4.75 -4.75 4.75 -4.625 2.125 C-2.625 0.125 -2.625 0.125 0 0 Z " fill="#C76360" transform="translate(386.625,118.875)"/>
<path d="M0 0 C0.99 0 1.98 0 3 0 C3.33 1.65 3.66 3.3 4 5 C3.01 5 2.02 5 1 5 C0.67 7.31 0.34 9.62 0 12 C-0.99 11.67 -1.98 11.34 -3 11 C-2.69217504 9.35328588 -2.37860766 7.70764424 -2.0625 6.0625 C-1.88847656 5.14597656 -1.71445312 4.22945313 -1.53515625 3.28515625 C-1 1 -1 1 0 0 Z " fill="#D07C7A" transform="translate(55,267)"/>
<path d="M0 0 C2.18975773 3.28463659 2.99806563 6.20696275 4 10 C1.69 10 -0.62 10 -3 10 C-2.01 6.7 -1.02 3.4 0 0 Z " fill="#FAF3F3" transform="translate(213,271)"/>
<path d="M0 0 C0.66 0 1.32 0 2 0 C2.33 0.99 2.66 1.98 3 3 C3.99 2.34 4.98 1.68 6 1 C5.67 3.64 5.34 6.28 5 9 C3.68 8.67 2.36 8.34 1 8 C0.67 5.36 0.34 2.72 0 0 Z " fill="#C96966" transform="translate(136,282)"/>
<path d="M0 0 C0.33 0.99 0.66 1.98 1 3 C-2.0684847 5.97550031 -3.46236331 6.96474513 -7.8125 7.25 C-8.864375 7.1675 -9.91625 7.085 -11 7 C-11 6.34 -11 5.68 -11 5 C-9.1128125 4.5978125 -9.1128125 4.5978125 -7.1875 4.1875 C-4.00551199 3.40467463 -1.99755689 2.74664072 0 0 Z " fill="#C76562" transform="translate(28,284)"/>
<path d="M0 0 C0.125 5.75 0.125 5.75 -1 8 C-1.99 8 -2.98 8 -4 8 C-4.33 6.02 -4.66 4.04 -5 2 C-1.125 0 -1.125 0 0 0 Z " fill="#CA6B69" transform="translate(156,283)"/>
<path d="M0 0 C0.93423645 3.01031744 1.04449911 3.86650268 0 7 C-0.99 7 -1.98 7 -3 7 C-3.33 5.02 -3.66 3.04 -4 1 C-2.68 0.67 -1.36 0.34 0 0 Z " fill="#C76562" transform="translate(65,284)"/>
<path d="M0 0 C3.3 0.33 6.6 0.66 10 1 C10 1.66 10 2.32 10 3 C6.7 3 3.4 3 0 3 C0 2.01 0 1.02 0 0 Z " fill="#C86663" transform="translate(459,288)"/>
<path d="M0 0 C6.625 -0.125 6.625 -0.125 10 1 C9.67 1.99 9.34 2.98 9 4 C5.625 3.6875 5.625 3.6875 2 3 C1.34 2.01 0.68 1.02 0 0 Z " fill="#D48886" transform="translate(334,267)"/>
<path d="M0 0 C2.97 0.33 5.94 0.66 9 1 C9 1.66 9 2.32 9 3 C6.03 3 3.06 3 0 3 C0 2.01 0 1.02 0 0 Z " fill="#C86663" transform="translate(330,288)"/>
<path d="M0 0 C0.99 0 1.98 0 3 0 C3.99 1.98 4.98 3.96 6 6 C4.68 6 3.36 6 2 6 C1.34 4.02 0.68 2.04 0 0 Z " fill="#CC716E" transform="translate(415,285)"/>
<path d="M0 0 C0.99 0.33 1.98 0.66 3 1 C4.1875 4.0625 4.1875 4.0625 5 7 C3.68 6.67 2.36 6.34 1 6 C0.67 4.02 0.34 2.04 0 0 Z " fill="#CB706D" transform="translate(219,284)"/>
<path d="M0 0 C0.93423645 3.01031744 1.04449911 3.86650268 0 7 C-0.99 7.33 -1.98 7.66 -3 8 C-2.74438677 5.6568787 -2.40729228 3.32156597 -2 1 C-1.34 0.67 -0.68 0.34 0 0 Z " fill="#CC726F" transform="translate(53,277)"/>
<path d="M0 0 C0.66 0 1.32 0 2 0 C2 1.98 2 3.96 2 6 C1.01 6.33 0.02 6.66 -1 7 C-1.04254356 5.00045254 -1.04080783 2.99958364 -1 1 C-0.67 0.67 -0.34 0.34 0 0 Z " fill="#CC706E" transform="translate(158,268)"/>
<path d="M0 0 C0.33 0.99 0.66 1.98 1 3 C1.66 3 2.32 3 3 3 C2.1875 4.9375 2.1875 4.9375 1 7 C0.01 7.33 -0.98 7.66 -2 8 C-1.33333333 5.33333333 -0.66666667 2.66666667 0 0 Z " fill="#D07C7A" transform="translate(416,273)"/>
<path d="M0 0 C0.33 0 0.66 0 1 0 C1 2.31 1 4.62 1 7 C-0.98 7.99 -0.98 7.99 -3 9 C-2.01 6.03 -1.02 3.06 0 0 Z " fill="#FAD9D9" transform="translate(349,133)"/>
<path d="M0 0 C0.66 0.66 1.32 1.32 2 2 C0.71034824 3.37562854 -0.62689293 4.70766393 -2 6 C-2.66 6 -3.32 6 -4 6 C-4 5.01 -4 4.02 -4 3 C-3.34 3 -2.68 3 -2 3 C-2 2.34 -2 1.68 -2 1 C-1.34 0.67 -0.68 0.34 0 0 Z " fill="#CC7370" transform="translate(520,285)"/>
<path d="M0 0 C0.66 0 1.32 0 2 0 C2 0.66 2 1.32 2 2 C3.98 2 5.96 2 8 2 C8 2.33 8 2.66 8 3 C4.7 3.33 1.4 3.66 -2 4 C-1.34 2.68 -0.68 1.36 0 0 Z " fill="#C86663" transform="translate(208,280)"/>
<path d="M0 0 C6.625 -0.125 6.625 -0.125 10 1 C10 1.99 10 2.98 10 4 C8.68 3.67 7.36 3.34 6 3 C6 2.34 6 1.68 6 1 C4.02 1 2.04 1 0 1 C0 0.67 0 0.34 0 0 Z " fill="#D48784" transform="translate(463,267)"/>
<path d="M0 0 C-2.93720508 1.52299523 -5.9168649 2.80100302 -9 4 C-9 3.01 -9 2.02 -9 1 C-6.04335481 -0.4783226 -3.25770263 -0.06032783 0 0 Z " fill="#C76562" transform="translate(340,268)"/>
</svg>
